<?xml version="1.0" encoding="UTF-8"?><svg xmlns="http://www.w3.org/2000/svg" viewBox="0 0 2927.57 851.74"><defs><style>.d{fill:#dc2626;}</style></defs><g id="a"/><g id="b"><g id="c"><path d="M467.09,269.91c-2.16-26.94-12.26-47.95-30.3-63.03-17.78-15.08-44.85-22.63-81.21-22.63-23.17,0-42.16,2.83-56.97,8.48-14.55,5.39-25.32,12.8-32.32,22.22-7,9.43-10.64,20.2-10.91,32.32-.54,9.97,1.21,18.99,5.25,27.07,4.31,7.81,11.04,14.95,20.2,21.41,9.16,6.2,20.88,11.85,35.15,16.97,14.28,5.12,31.25,9.7,50.91,13.74l67.88,14.55c45.79,9.7,84.98,22.49,117.58,38.38,32.59,15.89,59.26,34.61,80,56.17,20.74,21.28,35.96,45.25,45.66,71.92,9.97,26.67,15.08,55.76,15.35,87.28-.27,54.41-13.87,100.47-40.81,138.18-26.94,37.71-65.46,66.4-115.56,86.06-49.84,19.66-109.77,29.49-179.81,29.49s-134.68-10.64-188.29-31.92c-53.33-21.28-94.82-54.01-124.45-98.19C15.08,673.96,.27,617.13,0,547.9H213.34c1.35,25.32,7.68,46.6,18.99,63.84,11.31,17.24,27.21,30.3,47.68,39.19,20.74,8.89,45.39,13.33,73.94,13.33,23.98,0,44.04-2.96,60.2-8.89,16.16-5.93,28.42-14.14,36.77-24.65,8.35-10.5,12.66-22.49,12.93-35.96-.27-12.66-4.44-23.71-12.52-33.14-7.81-9.7-20.74-18.32-38.79-25.86-18.05-7.81-42.43-15.09-73.14-21.82l-82.43-17.78c-73.27-15.89-131.05-42.42-173.34-79.6-42.02-37.44-62.9-88.49-62.63-153.14-.27-52.53,13.74-98.45,42.02-137.78,28.55-39.6,68.02-70.44,118.39-92.53C232.06,11.04,290.11,0,355.57,0s124.58,11.18,173.34,33.54c48.76,22.36,86.33,53.87,112.73,94.55,26.67,40.41,40.14,87.68,40.41,141.82h-214.95Zm613.96,580.22c-67.34,0-124.99-13.33-172.93-40-47.95-26.94-84.72-64.38-110.31-112.33-25.59-48.22-38.39-104.11-38.39-167.68s12.8-119.33,38.39-167.28c25.59-48.22,62.36-85.66,110.31-112.33,47.94-26.94,105.59-40.41,172.93-40.41s124.99,13.47,172.93,40.41c47.95,26.67,84.72,64.11,110.31,112.33,25.59,47.95,38.39,103.71,38.39,167.28s-12.8,119.46-38.39,167.68c-25.59,47.95-62.36,85.39-110.31,112.33-47.94,26.67-105.59,40-172.93,40Zm1.62-164.85c18.86,0,35.15-6.33,48.89-18.99,13.74-12.66,24.38-30.71,31.92-54.14,7.54-23.44,11.31-51.32,11.31-83.64s-3.77-60.47-11.31-83.64c-7.54-23.44-18.18-41.48-31.92-54.15-13.74-12.66-30.03-18.99-48.89-18.99-19.94,0-37.04,6.33-51.32,18.99-14.28,12.66-25.19,30.71-32.73,54.15-7.54,23.17-11.31,51.05-11.31,83.64s3.77,60.2,11.31,83.64c7.54,23.44,18.45,41.48,32.73,54.14,14.28,12.66,31.38,18.99,51.32,18.99Zm812.95-117.98V218.19h223.04V838.81h-211.72v-117.98h-6.46c-13.47,39.6-37.04,70.58-70.71,92.93-33.67,22.09-73.67,33.13-120,33.13-43.37,0-81.35-9.97-113.94-29.9-32.32-19.93-57.51-47.41-75.56-82.43-17.78-35.02-26.8-75.16-27.07-120.41V218.19h223.04v349.1c.27,30.71,8.08,54.82,23.44,72.33,15.62,17.51,37.44,26.27,65.46,26.27,18.59,0,34.61-3.91,48.08-11.72,13.74-8.08,24.24-19.39,31.52-33.94,7.54-14.82,11.18-32.46,10.91-52.93Zm706.59-349.1v161.62h-408.9V218.19h408.9Zm-329.71-148.69h223.04V639.21c0,8.62,1.48,15.89,4.44,21.82,2.96,5.66,7.54,9.97,13.74,12.93,6.2,2.7,14.14,4.04,23.84,4.04,6.73,0,14.55-.81,23.44-2.43,9.16-1.62,15.89-2.96,20.2-4.04l32.32,156.77c-9.97,2.97-24.24,6.6-42.83,10.91-18.32,4.31-40.14,7.14-65.46,8.48-51.18,2.7-94.14-2.56-128.89-15.76-34.75-13.47-60.88-34.61-78.39-63.44-17.51-28.82-25.99-64.92-25.46-108.28V69.5Z"/><path class="d" d="M2814.43,851.74c-31.25,0-58.05-10.91-80.41-32.73-22.09-22.09-33-48.89-32.73-80.41-.27-30.71,10.64-56.97,32.73-78.79,22.36-21.82,49.16-32.73,80.41-32.73,29.63,0,55.76,10.91,78.38,32.73,22.9,21.82,34.48,48.08,34.75,78.79-.27,21.01-5.79,40.14-16.57,57.38-10.5,16.97-24.24,30.57-41.21,40.81-16.97,9.97-35.42,14.95-55.35,14.95Z"/></g></g></svg>